<svg xmlns="http://www.w3.org/2000/svg" xmlns:xlink="http://www.w3.org/1999/xlink" fill="none" version="1.1" width="20" height="20" viewBox="0 0 20 20"><defs><linearGradient x1="0" y1="0" x2="1.0000030860586018" y2="0.9999969139223508" id="master_svg0_2_5770"><stop offset="0%" stop-color="#359DFF" stop-opacity="1"/><stop offset="100%" stop-color="#4CFF8D" stop-opacity="1"/></linearGradient></defs><g><g><path d="M16.157322656250003,2.395792633325L12.03237265625,2.395792633325C11.66418265625,2.395792633325,11.36570265625,2.694268953125,11.36570265625,3.062458953125C11.36570265625,3.430651953125,11.66418265625,3.729121953125,12.03237265625,3.729121953125L15.86572265625,3.729121953125L15.86572265625,7.562461953125C15.86572265625,7.930651953125,16.16422265625,8.229121953125,16.532322656250003,8.229121953125C16.90052265625,8.229121953125,17.19902265625,7.930651953125,17.19902265625,7.562461953125L17.19902265625,3.437461953125Q17.19902265625,3.005987953125,16.89392265625,2.700890953125Q16.588822656250002,2.395792633325,16.157322656250003,2.395792633325ZM10.34469265625,9.145671953125L9.698272656250001,7.529601953125C9.69096265625,7.381161953125,9.63426265625,7.239421953125,9.53719265625,7.126901953125L7.92214265625,3.089280953125Q7.68641265625,2.499958953125,7.05169265625,2.499958953125L6.05947265625,2.499958953125Q5.42475265625,2.499958953125,5.18902265625,3.089280953125L2.42476785625,9.999921953125L3.6364326562500002,9.999921953125L4.3447826562500005,8.229041953125L8.76638265625,8.229041953125L9.30767265625,9.582261953125Q9.11564265625,9.845031953125,9.11564265625,10.187331953125L9.11564265625,16.187351953125003Q9.11564265625,16.618851953125002,9.420742656249999,16.923951953125Q9.725832656249999,17.229051953125,10.15730265625,17.229051953125L14.28232265625,17.229051953125Q15.49042265625,17.229051953125,16.34472265625,16.374751953125Q17.19902265625,15.520451953125,17.19902265625,14.312351953125L17.19902265625,10.187331953125Q17.19902265625,9.755861953124999,16.89392265625,9.450771953124999Q16.588822656250002,9.145671953125,16.157322656250003,9.145671953125L10.34469265625,9.145671953125ZM6.92475265625,3.624961953125L8.233052656249999,6.895711953125L4.87811265625,6.895711953125L6.18641265625,3.624961953125L6.92475265625,3.624961953125ZM14.28232265625,15.895651953125L10.44897265625,15.895651953125L10.44897265625,10.479001953125L15.86562265625,10.479001953125L15.86562265625,14.312351953125Q15.86562265625,14.968151953125,15.40192265625,15.431951953125Q14.93812265625,15.895651953125,14.28232265625,15.895651953125ZM5.282452656249999,17.228651953125002L7.53245265625,17.228651953125002C7.90064265625,17.228651953125002,8.19911265625,16.930151953124998,8.19911265625,16.562051953125C8.19911265625,16.193851953124998,7.90064265625,15.895351953125,7.53245265625,15.895351953125L5.282452656249999,15.895351953125Q4.62661265625,15.895351953125,4.16286265625,15.431551953125Q3.69911265625,14.967851953125,3.69911265625,14.312051953125L3.69911265625,12.062011953125C3.69911265625,11.693821953125,3.40064265625,11.395341953125,3.03245065625,11.395341953125C2.66426065625,11.395341953125,2.36578385035,11.693821953125,2.36578385035,12.062011953125L2.36578226085,14.312051953125Q2.36578106875,15.520151953125,3.22005365625,16.374451953125Q4.07432265625,17.228651953125002,5.282452656249999,17.228651953125002Z" fill-rule="evenodd" fill="url(#master_svg0_2_5770)" fill-opacity="1"/></g></g></svg>